# xmcd CD database file
#
# Track frame offsets:
#	150
#	20984
#	43269
#	65358
#	86110
#	105075
#	119272
#	139191
#	160446
#	178113
#	201360
#	224234
#	246279
#	262716
#
# Disc length: 3854 seconds
#
# Revision: 21
# Processed by: cddbd v1.5.2PL0 Copyright (c) Steve Scherf et al.
# Submitted via: jetAudio 5
#
DISCID=d50f0c0e
DTITLE=?????????? - ????3 ?the album of LOVE? DISC.1
DYEAR=2000
DGENRE=
TTITLE0=?????
TTITLE1=??????????????Y??????
TTITLE2=????????
TTITLE3=?????????????????
TTITLE4=????
TTITLE5=????? BIG WAVE
TTITLE6=????????????
TTITLE7=?????
TTITLE8=OH, GIRL????????????
TTITLE9=?????????No No Birdy?
TTITLE10=????
TTITLE11=HAIR
TTITLE12=??
TTITLE13=??????????????????????
EXTD=YEAR: 2000
EXTT0=
EXTT1=
EXTT2=
EXTT3=
EXTT4=
EXTT5=
EXTT6=
EXTT7=
EXTT8=
EXTT9=
EXTT10=
EXTT11=
EXTT12=
EXTT13=
PLAYORDER=
